Patient4_TMGait_0pt7_02_left_51_EMG.mot
version=1
nRows=13
nColumns=33
inDegrees=no
endheader
time	1LAddLong	2LGlutMax	3LGlutMed	4LIliopsoas	5LSemiMemb	6LBicFemLong	7LRecFem	8LVastMed	9LVastLat	10LGasMed	11LTibAnt	12lTibPost	13LPeroneusLong	14LSol	15LExtDigLong	16LFlexDigLong	17RAddLong	18RGlutMax	19RGlutMed	20RIliopsoas	21RSemiMemb	22RBicFemLong	23RRecFem	24RVastMed	25RVastLat	26RGasMed	27RTibAnt	28RTibPost	29RPeroneusLong	30RSol	31RExtDigLong	32RFlexDigLong
58.8	-0.009308	1.4346	0.19592	-0.010681	-0.069733	0.45258	0.70145	0.016022	-0.30609	0.02121	0.26611	-0.017242	-0.003052	-0.077362	-0.17716	0.04425	0.080566	2.4995	-0.4982	0.15274	-0.06958	-0.018768	1.0866	0.14908	-0.004883	-0.033112	-0.006104	0.04425	0.61111	0.046692	-0.003357	-0.004272
58.801	-0.00885	1.3846	0.032654	0.023193	-0.066223	0.42313	0.71945	0.000305	-0.21393	0.003815	0.095062	-0.015106	-0.054169	0.083923	-0.33066	0.055389	0.075989	2.4838	-0.51956	0.088806	-0.054626	-0.024872	0.77255	0.112	-0.018463	-0.03067	0.009308	-0.035248	0.42435	-0.20462	-0.000458	-0.00351
58.802	-0.005188	1.3582	0.029602	0.013428	-0.054016	0.13489	0.71915	-0.005951	-0.10284	0.013428	-0.2507	-0.022583	-0.088654	-0.005035	-0.39124	0.056763	0.077057	2.4593	-0.5394	0.15366	-0.037231	-0.0177	0.57754	0.040436	-0.028076	-0.035095	0.021515	-0.10132	0.26306	-0.044556	0.001221	0.007019
58.803	-0.008698	1.4096	0.050507	0.002899	-0.047455	-0.53223	0.65811	-0.004272	0.065765	-0.004578	-0.053406	-0.014343	0.14114	-0.07431	-0.14053	0.055084	0.051117	2.4182	-0.50888	0.23331	-0.018921	-0.00351	0.45441	0.03479	0.00473	-0.03479	0.017853	0.022888	0.21042	0.44571	-0.002441	-0.005951
58.804	-0.001373	1.4345	-0.13473	0.012054	-0.053711	-0.54855	0.47653	0.007019	0.081787	-0.048676	0.29037	-0.004425	0.56732	0.083313	0.97824	0.076447	0.012512	2.3865	-0.51544	0.19989	-0.014954	-0.014191	0.35324	0.028229	-0.010681	-0.020447	-0.011902	0.026093	-0.065002	0.35019	0	-0.001831
58.805	-0.003662	1.441	-0.18555	0.00473	-0.065918	-0.24765	0.4126	0.011444	-0.27161	-0.080261	0.5307	-0.001221	0.045319	0.20462	1.1981	0.082703	-0.007019	2.3174	-0.55512	0.089722	-0.021973	-0.020599	0.50812	0.030823	-0.009155	-0.021973	-0.037842	0.001526	0.040741	0.20432	-0.002594	-0.00061
58.806	-0.019073	1.4661	-0.12497	0.017395	-0.074005	-0.076294	0.4126	0.002899	-0.96069	-0.083313	0.2626	-0.00061	-0.4776	0.13901	0.37155	0.090332	-0.024872	2.2687	-0.55481	0.031281	-0.026703	-0.009003	0.62897	0.04364	-0.023651	-0.02121	-0.038147	-0.023346	0.028534	-0.093079	-0.001526	-0.001526
58.807	-0.016174	1.452	-0.07843	0.01297	-0.079498	0.007629	0.38467	0.014496	-1.105	-0.13229	-0.15808	0.009918	-0.67429	0.2092	-0.099335	0.080566	0.056458	2.1635	-0.56183	-0.053711	-0.039215	-0.029907	0.93445	0.020599	-0.013428	-0.016174	-0.027161	-0.035706	-0.089569	-0.392	-0.002594	-0.008392
58.808	-0.007935	1.4621	-0.05722	0.001221	-0.089264	-0.048828	0.27176	0.020294	-0.80963	-0.15991	-0.20065	0.008698	0.03006	0.16724	-0.087128	0.083008	0.052643	2.0705	-0.55893	-0.037842	-0.021973	0.006561	1.1691	0.094299	0.014038	-0.015106	-0.029907	-0.033569	-0.12741	-0.26123	-0.001221	-0.001984
58.809	-0.015717	1.4003	-0.12344	0.011902	-0.068207	-0.080261	0.20813	0.00824	-0.61981	-0.14191	-0.23926	0.020447	-0.099792	0.24658	-0.29144	0.082397	0.054169	1.8802	-0.63431	0.00824	-0.016022	0.002899	1.2451	0.23148	0.010986	-0.000763	-0.034027	-0.0383	0.020599	-0.092621	-0.003662	-0.011292
58.81	-0.001526	1.223	-0.080109	-0.002136	-0.042114	0.006714	0.17685	0.025024	-0.52551	-0.11032	-0.34103	0.014038	0.35385	0.14099	-0.383	0.056305	0.023041	1.7923	-0.66223	0.027618	-0.012512	0.001068	1.2341	0.30746	0.005646	-0.012817	-0.027466	-0.0383	0.3154	-0.069275	0.000458	-0.014343
58.811	0.007172	1.1391	0.061951	0.011749	-0.081635	-0.040588	0.053253	0.024872	-0.44983	-0.13519	-0.50018	0.014191	0.32425	0.047455	-1.0274	0.056763	-0.013428	1.6116	-0.70694	0.037231	-0.015259	-0.005188	0.92194	0.30685	0.005341	-0.012512	-0.03479	-0.03952	0.46906	0.51056	-0.001221	-0.003662
58.812	0.017548	0.99792	0.10498	0.019989	-0.1416	-0.27695	-0.055847	0.015564	-0.39093	-0.073547	-0.37277	0.024567	0.28473	-0.16953	-0.74646	0.030823	-0.066071	1.4102	-0.76096	0.051727	-0.023499	-0.00412	0.72906	0.2124	-0.010223	-0.011597	-0.08194	-0.02121	0.38391	0.27725	0.000916	-0.012665
